<svg width="350" height="73" viewBox="0 0 350 73" fill="none" xmlns="http://www.w3.org/2000/svg">
<g clip-path="url(#clip0_1132_457)">
<path d="M332.711 26.0804H331.513V21.3824H329.799V20.3489H334.45V21.3824H332.711V26.0804Z" fill="white"/>
<path d="M340.651 26.0804H339.547V21.2885H339.524L338.466 26.0804H337.292L336.235 21.2885V26.0804H335.107V20.3489H336.846L337.903 24.8824L338.936 20.3489H340.651V26.0804Z" fill="white"/>
<path d="M265.154 14.0535C269.077 13.7481 272.037 10.3891 271.732 6.51325C271.403 2.63741 268.02 -0.29883 264.097 0.0300302C260.268 0.335398 257.309 3.69446 257.52 7.5703C257.826 11.4461 261.326 14.2649 265.154 14.0535Z" fill="white"/>
<path d="M288.386 48.4898C288.386 37.0737 294.211 28.1945 301.634 28.1945C305.346 28.1945 307.671 30.4025 307.671 34.067C307.671 40.5502 301.728 46.728 288.903 53.4227C288.597 51.9428 288.386 50.275 288.386 48.4898ZM56.9632 28.171C60.2517 28.171 62.6947 30.2616 62.6947 33.5032C62.6947 41.1374 54.0034 46.8925 41.8121 47.9495C42.235 37.1911 48.4833 28.171 56.9631 28.171H56.9632ZM166.943 28.171C172.04 28.171 173.943 31.4126 172.886 35.7113C171.617 41.3723 166.097 45.0368 157.923 45.0368C156.114 45.0368 154.329 44.9428 152.614 44.7314C154.118 34.5602 160.272 28.171 166.943 28.171V28.171ZM345.936 47.2918C342.953 48.8186 340.04 50.3925 337.175 51.9428C325.195 58.2146 314.483 63.7817 303.56 63.7817C299.003 63.7817 295.386 62.6307 292.849 60.5401C309.175 51.9663 316.715 43.4864 316.715 33.8555C316.715 25.0703 311.101 19.832 301.752 19.832C289.443 19.832 279.695 32.4931 279.695 48.5133C279.695 51.7549 280.024 54.5737 280.752 57.2045C276.289 59.6005 272.483 60.8689 268.349 60.8689C262.829 60.8689 261.232 56.9931 261.232 53.0233C261.02 46.7515 262.195 38.0602 264.614 25.7045L255.5 23.7079C246.386 49.4528 234.923 63.8052 224.963 63.8052C222.097 63.8052 220.5 62.3488 220.5 59.8354C220.5 54.926 223.037 50.4159 231.094 37.332C220.711 29.9092 214.98 24.4596 214.98 15.9797L205.866 14.5233C202.272 30.7549 195.483 45.2951 186.346 54.2918C180.309 60.2582 173.191 63.8052 165.252 63.8052C158.369 63.8052 153.483 60.1408 152.426 53.0233C154.117 53.1173 155.809 53.2347 157.524 53.2347C169.926 53.2347 180.332 47.6911 182.54 37.6374C184.866 28.7347 178.711 19.832 167.06 19.832C154.658 19.832 146.389 30.9193 143.829 42.5468C137.04 39.5166 132.154 33.3388 130.792 21.9227L121.466 23.0737C123.792 40.973 111.084 48.3958 104.295 60.3287L99.198 18.5636L89.3322 20.1374C87.8524 48.6072 70.5638 63.7817 56.6577 63.7817C49.9866 63.7817 45.1007 61.3857 42.9866 56.03C60.1577 54.3623 71.9497 45.2482 71.9497 33.1039C71.9497 25.2582 65.7953 19.8086 57.198 19.8086C44.1611 19.8086 33.4497 32.2582 32.604 48.067C19.7315 47.5971 10.453 44.8018 1.55033 42.171L0 50.4864C9.5604 53.2817 19.4262 55.8656 33.2383 56.3354C35.6812 66.3891 44.0436 72.1441 56.4698 72.1441C71.6443 72.1441 86.3725 60.3052 93.3725 41.8891L97.2953 72.0267L107.372 72.8723C111.201 60.3052 122.547 53.3052 128.044 40.7381C131.638 45.7649 136.946 49.218 143.101 51.0971C143.735 64.9092 153.06 72.1441 165.064 72.1441C175.235 72.1441 184.466 67.8455 192.218 60.2112C199.758 52.7884 206.007 42.0065 210.352 29.5334C212.255 32.9864 215.238 36.1341 219.466 39.5871C212.889 50.8857 211.621 55.4898 211.621 59.483C211.621 67.8455 217.023 72.1441 224.987 72.1441C233.795 72.1441 243.661 64.5099 252.235 50.1576V52.9763C252.235 62.6072 257.849 69.2079 268.349 69.2079C273.54 69.2079 278.638 67.5401 284.252 64.4864C288.174 69.5133 294.634 72.1206 303.56 72.1206C315.752 72.1206 327.849 66.3656 341.215 59.2482C344.081 57.6978 347.017 56.124 350 54.5972L345.936 47.2918L345.936 47.2918Z" fill="white"/>
</g>
<defs>
<clipPath id="clip0_1132_457">
<rect width="350" height="72.8674" fill="white" transform="translate(0 0.00488281)"/>
</clipPath>
</defs>
</svg>
