<svg width="151" height="175" viewBox="0 0 151 175" fill="none" xmlns="http://www.w3.org/2000/svg">
<g clip-path="url(#clip0_1133_478)">
<path d="M127.59 18.6114H140.408V0H94.4059V18.6114H107.223V69.3003L127.59 62.6827V18.6114Z" fill="white"/>
<path d="M51.4138 94.3177V174.877H92.8257V156.266H71.7811V139.022H88.4362V120.06H71.7811V107.153L88.4362 101.742V82.2886L51.4138 94.3177Z" fill="white"/>
<path d="M94.4059 80.3487V99.8019L107.223 95.6373V174.877H127.59V89.0196L140.339 84.8773V65.4241L94.4059 80.3487Z" fill="white"/>
<path d="M88.4363 0H68.069V82.0227L88.4363 75.4046V0Z" fill="white"/>
<path d="M22.7692 67.8757L29.6944 54.6524L42.9912 90.1706L62.9973 83.6703L43.9853 35.8243L62.9973 0H41.2974L22.7692 35.4038V0H2.40198V103.359L22.7692 96.7412V67.8757Z" fill="white"/>
<path d="M22.0604 125.74C22.0604 124.035 23.1635 122.932 25.9714 122.029L45.4257 115.711V96.257L21.0576 104.179C7.61999 108.592 0.5 116.514 0.5 128.347C0.5 134.23 2.0628 138.186 4.78127 141.136C7.94826 144.574 12.6841 146.646 18.35 148.804C22.7624 150.509 23.8655 151.412 23.8655 153.116C23.8655 154.921 22.5618 156.125 19.6537 156.125H2.40536V174.877H21.1579C35.7988 174.877 45.4257 165.752 45.4257 151.111C45.4257 139.894 39.922 135.538 31.5952 131.964C30.3183 131.416 28.9758 130.886 27.5759 130.353C23.1636 128.648 22.0604 127.645 22.0604 125.74L22.0604 125.74Z" fill="white"/>
<path d="M137.233 169.094H134.849V167.549H141.383V169.094H138.988V174.877H137.233V169.094Z" fill="white"/>
<path d="M145.49 174.877L143.867 169.039V174.877H142.112V167.549H144.982L146.339 172.615L147.664 167.549H150.5V174.877H148.745V169.028L147.134 174.877H145.49Z" fill="white"/>
</g>
<defs>
<clipPath id="clip0_1133_478">
<rect width="150" height="174.877" fill="white" transform="translate(0.5)"/>
</clipPath>
</defs>
</svg>
