<svg width="256" height="98" viewBox="0 0 256 98" fill="none" xmlns="http://www.w3.org/2000/svg">
<path d="M125.677 58.3071C128.492 53.1224 137.536 41.9454 148.414 41.9454C152.21 41.9454 155.495 43.9853 155.495 47.6826C155.709 55.4597 142.1 63.3643 129.217 69.5265C128.535 70.6739 127.468 72.2464 126.956 72.9263C126.743 73.1813 126.658 73.3513 126.658 73.3513C126.7 73.3513 127.17 72.9688 128.407 72.2464C129.601 71.6089 133.014 69.9515 138.346 69.6965C140.479 69.6115 147.39 70.2065 147.902 77.6436C147.945 82.9983 144.916 86.1431 142.271 89.118C141.887 89.458 141.674 89.7555 141.674 89.7555C141.674 89.7555 142.015 89.713 142.399 89.4155C145.428 87.3756 151.741 81.4259 155.538 78.3236C161.084 73.3938 169.701 68.634 177.166 68.634C181.688 68.4641 185.229 70.8014 185.741 74.1163C185.783 74.5837 185.783 74.6687 185.783 74.6687C186.594 73.6488 187.532 71.8639 188.812 69.484H199.477C199.05 69.909 198.922 69.909 198.624 70.334C195.509 75.7312 192.395 80.9584 189.196 86.3981C186.935 90.0529 190.006 91.4979 191.926 91.4979C193.632 91.4979 197.344 90.5204 201.268 85.4632C204.127 81.6809 208.99 73.0538 208.99 73.0538C208.52 73.2663 208.392 73.2663 207.838 73.2663H203.188C202.847 73.2663 202.506 73.2663 201.994 73.3938C202.122 72.8413 202.506 72.4164 202.932 71.6939C203.359 70.9289 203.828 70.249 204.297 69.484H211.08C211.08 69.484 221.148 52.7824 222.129 50.87H232.665C232.538 50.9975 232.068 51.7199 231.727 52.2299C228.229 57.8821 224.987 63.5343 221.446 69.1865C221.19 69.5265 220.977 69.7815 220.977 69.7815C220.977 69.7815 221.489 69.484 222.001 69.484C224.219 69.484 233.263 69.484 233.263 69.484C237.102 63.4068 240.557 56.9897 244.311 50.8275H254.55H254.976C254.976 50.8275 254.422 51.125 254.08 51.6349C251.563 55.7997 246.956 63.6193 243.33 69.6115C243.33 69.654 243.202 69.7815 243.202 69.7815C243.202 69.7815 243.8 69.569 243.97 69.5265C244.226 69.5265 244.738 69.484 244.695 69.484C246.658 69.484 248.279 69.484 250.796 69.484C253.867 69.484 256 68.889 256 68.889C254.72 70.9289 253.654 72.6288 252.459 74.7112C251.435 73.1388 250.668 73.2663 249.26 73.1813C249.303 73.1813 241.411 73.1813 241.411 73.1813C240.941 73.9038 233.263 86.2706 233.135 87.4181C232.58 89.798 234.287 91.3279 236.377 91.3704C240.216 91.7953 245.591 86.1431 248.364 82.6583C248.364 82.6583 250.796 82.7008 251.521 82.6158C252.502 82.6158 253.483 82.1908 253.483 82.1908C250.497 85.2932 247.383 89.1605 242.69 92.5178C238.808 95.5777 234.201 97.0651 230.191 97.1926C225.669 97.3201 222.811 94.8977 222.299 92.6028C222.214 92.2628 222.086 91.6679 222.129 91.0304C222.129 91.0304 221.915 91.2004 221.318 91.7104C216.327 95.7477 211.379 97.1076 206.985 96.9801C203.743 97.0226 200.287 95.4077 199.69 92.3903C199.605 91.8378 199.519 91.6254 199.605 91.1154C199.477 91.2004 199.263 91.3704 199.007 91.5829C197.386 92.7303 192.011 97.6175 183.565 96.9801C180.664 96.5976 177.721 95.3227 177.507 91.4554C177.507 90.8179 177.593 90.2654 177.593 90.2654C177.593 90.2654 177.507 90.3504 177.337 90.5204C174.351 93.1978 169.146 97.2351 161.595 97.0226C156.519 96.7251 153.917 93.2403 153.405 90.5629C152.893 87.7581 153.746 84.7407 155.794 82.1059C155.964 81.8084 156.178 81.6384 156.178 81.6384C156.178 81.6384 155.837 81.6809 155.41 82.0634C152.978 83.9333 148.201 88.3955 142.612 91.6679C138.944 94.3452 130.113 97.9575 122.989 98C110.746 97.1926 108.912 91.0729 108.784 90.8604V90.8179C108.698 90.8604 108.656 90.9029 108.57 90.9879C103.664 94.7702 97.9055 97.745 91.2934 96.9801C89.5017 96.6826 87.5393 95.9601 86.5582 94.2177C85.9183 93.0703 85.6623 91.3279 85.9183 90.0104C85.6197 90.3929 85.5344 90.4779 85.3211 90.7329C82.079 93.8352 77.2159 96.8951 71.7555 97.0651C68.0868 97.2351 64.0769 96.3851 62.2852 92.9003C60.8774 90.1804 62.1572 87.2056 62.1572 87.2056C61.7733 87.5456 61.2614 88.1405 60.6215 88.9055C57.934 92.2628 53.3694 96.8951 44.8376 97.1501C38.78 97.6175 30.5895 94.0052 29.2671 93.4528C28.2432 93.8777 21.2045 97.0651 12.8433 97.1076C11.2223 97.0651 -0.210349 97.3201 0.00294657 89.458C0.173583 86.3556 2.8611 82.7858 11.6915 82.0209C18.133 81.5534 24.148 83.5083 30.2056 85.2932C32.3385 82.6583 34.2582 79.5135 36.0072 76.6236C34.4715 77.1761 31.1867 77.1336 31.1867 77.1336C21.0765 77.0486 15.4455 70.6314 15.4455 63.7893C15.7868 54.8223 23.2521 48.1926 34.6421 48.1501C38.6094 48.0651 44.4537 49.9775 44.7096 50.36L44.2831 50.87C43.3872 50.5725 37.9269 49.6375 32.1679 52.4424C27.4327 54.7373 22.9109 59.157 22.9109 64.7667C22.6976 68.2941 24.7879 71.4814 27.902 73.0963C30.8028 74.4987 34.2582 74.5412 37.3723 73.7763C41.3396 67.1041 46.7146 57.9246 50.0847 53.3348C54.4786 47.4701 64.3328 39.0131 74.4004 40.0755C74.4004 40.0755 80.9272 40.6705 81.1832 46.8327C80.9699 52.1024 76.9599 55.8422 73.2912 59.3695C65.1433 66.3817 54.6492 71.7789 50.426 73.9038C48.8476 76.6661 47.6958 78.9185 46.3734 80.7034C42.79 85.4632 40.4011 86.9931 39.4199 87.4606C38.9507 87.6306 38.8654 87.6731 38.8654 87.6731C40.2304 88.2255 41.6382 88.6505 43.3872 89.2455C46.0747 90.2229 49.1035 91.0304 51.0658 90.8604C54.7345 90.6054 56.6542 88.7355 59.1284 86.2281C61.0481 84.2732 64.5888 80.1934 68.1721 76.6661C75.3389 69.6115 81.8657 68.7191 84.9371 68.5491C89.8003 68.4216 92.7864 70.334 93.7676 73.3088C93.8956 73.6488 93.9382 74.0738 93.9382 74.3713C94.962 72.8413 95.7299 71.4389 96.8817 69.399C97.9055 69.399 107.29 69.399 107.29 69.399C107.12 69.6115 106.821 69.8665 106.608 70.164C103.664 75.0512 100.934 80.1085 97.8628 84.9107C97.0523 86.4831 95.4313 88.523 96.967 90.2654C98.5454 91.7528 101.062 91.7529 102.939 90.7754C107.035 88.9055 109.466 84.6982 111.77 81.0434C115.993 74.2438 125.677 58.3071 125.677 58.3071ZM147.347 44.8353C142.612 44.6653 140.778 51.295 131.393 65.9992C135.616 63.0243 149.566 52.2724 149.651 47.1302C149.608 45.3028 147.859 44.8353 147.347 44.8353ZM231.428 73.0538C231.428 73.0538 231.002 73.3938 230.149 73.3513H219.1C214.791 81.0009 211.72 85.3357 211.123 86.9506C210.653 88.0131 209.672 91.3279 214.279 91.5404C218.033 91.5404 222.385 87.1631 223.494 85.5482C226.011 82.2758 228.826 76.8786 230.788 73.9888C231.13 73.4788 231.428 73.0538 231.428 73.0538ZM179.598 72.8413C175.46 72.7138 171.535 76.8361 169.061 79.726C165.477 84.3582 164.795 86.8656 164.795 88.268C164.795 90.1379 166.075 91.6254 168.208 91.6254C171.791 91.8378 175.289 88.438 178.233 84.6557C180.792 81.2559 182.882 77.6436 182.754 76.1137C182.882 75.4337 182.413 72.9688 179.598 72.8413ZM133.355 74.1163C125.207 74.1588 118.382 89.1605 118.638 91.0304C118.68 93.0703 120.302 93.9202 122.562 93.8777C127.554 93.8352 137.408 82.9558 137.195 77.7711C137.195 75.3487 135.488 74.2013 133.355 74.1163ZM74.9549 47.8526C76.1494 45.0903 74.4004 43.6028 73.2486 43.3479C70.0918 42.6679 67.8735 45.7277 66.5511 47.6401C62.1572 54.2273 55.4597 66.4667 53.2415 69.2715C52.6442 70.079 52.5589 70.1215 52.2176 70.7589C52.2176 70.7589 57.8486 67.0616 64.8447 60.1345C66.5938 58.1371 72.822 52.3574 74.9549 47.8526ZM79.2635 77.8986C75.2109 82.1059 73.5045 85.4632 73.3339 88.098C73.3339 89.203 73.5472 91.3704 76.7466 91.6254C79.3915 91.7954 83.4014 89.0755 86.5582 84.7407C89.1177 81.4684 91.2507 78.1961 91.3787 75.9862C91.3787 74.6262 90.4828 72.8838 87.9233 72.8413C85.4491 72.8413 82.4629 74.4988 79.2635 77.8986ZM8.32146 87.1206C7.38296 87.0356 3.71429 87.2906 3.67163 89.9254C3.67163 90.7754 4.14087 93.7928 11.009 94.0052C16.6826 93.9627 19.8821 92.6878 21.2898 92.3053C22.5696 91.8379 23.6787 91.3704 23.9773 91.2854C23.5081 91.2429 23.5081 91.2854 22.9535 91.0729C21.3751 90.5629 19.1995 89.8829 15.7868 88.778C12.63 87.8006 9.6439 87.1206 8.32146 87.1206Z" fill="white"/>
<path d="M119.406 28.1335C129.217 28.1335 137.152 22.6513 137.152 15.8942C137.152 9.137 129.217 3.65479 119.406 3.65479C109.594 3.65479 101.659 9.137 101.659 15.8942C101.659 22.6513 109.594 28.1335 119.406 28.1335Z" fill="white"/>
<path d="M131.947 6.03469C133.526 7.01214 134.848 8.20207 135.829 9.47701C136.64 8.20207 136.853 5.94969 134.678 5.05724C134.336 4.92975 133.91 4.75975 133.312 4.58976C132.417 4.33478 132.374 4.29228 131.521 3.44232L128.407 0L128.236 0.127495L131.222 3.73981C131.436 4.03729 131.947 4.75976 131.947 6.03469Z" fill="white"/>
<path d="M123.714 28.8135C122.562 28.9835 121.368 29.111 120.131 29.1535C121.069 34.1257 126.274 32.4683 126.999 31.9583V31.7883C126.359 31.7883 126.274 31.7883 125.719 31.3634C125.207 30.9384 124.482 29.4934 123.714 28.8135Z" fill="white"/>
<path d="M132.502 29.791V29.5785C132.075 29.876 131.179 30.046 130.668 29.4085C130.113 28.7285 129.217 27.9636 128.449 27.4961C127.297 27.9211 126.103 28.3036 124.823 28.5585C125.378 30.046 127.98 33.2758 132.502 29.791Z" fill="white"/>
<path d="M135.147 26.8586C134.464 26.4336 133.312 25.7112 132.459 25.4137C131.521 26.0512 130.497 26.6036 129.43 27.1136C129.9 27.8361 131.393 29.0685 133.014 29.0685C134.933 29.0685 136.384 27.7086 136.981 26.9011L136.896 26.7311C136.597 27.0711 135.829 27.2836 135.147 26.8586Z" fill="white"/>
<path d="M140.394 22.0139C140.138 22.5663 139.2 23.1613 138.346 22.9063C137.365 22.5663 136.64 22.4813 135.829 22.3538C135.147 23.2463 134.294 24.0537 133.355 24.8187C133.91 25.2862 134.806 25.7537 135.787 25.8811C138.688 26.2211 140.309 22.8638 140.522 22.1838L140.394 22.0139Z" fill="white"/>
<path d="M141.93 16.7866C141.93 17.1691 141.546 18.0616 140.565 18.1041C139.754 18.1466 138.56 18.3165 137.749 18.699C137.45 19.719 136.939 20.6964 136.341 21.6314C136.853 21.7589 137.365 21.9714 138.517 21.8439C141.546 21.5464 142.1 17.8066 142.1 16.8291L141.93 16.7866Z" fill="white"/>
<path d="M141.674 11.0919L141.503 11.0494C141.588 11.8144 141.546 12.4519 140.82 12.7494C140.095 13.0468 138.858 13.6418 138.048 14.3218C138.133 14.8317 138.176 15.3842 138.176 15.8942C138.176 16.4892 138.133 17.0416 138.005 17.5941C139.455 17.5516 141.844 16.3617 141.93 14.1093C142.015 12.1119 141.802 11.5169 141.674 11.0919Z" fill="white"/>
<path d="M140.351 9.2645C140.266 6.67214 137.152 3.27232 135.19 1.52991L135.062 1.6999C136.299 2.67734 138.474 5.4822 138.773 6.16216C139.071 6.84212 139.157 7.56459 138.56 8.03207C138.176 8.32955 136.811 9.307 136.299 10.157C136.981 11.1344 137.493 12.1968 137.792 13.3018C139.455 12.5368 140.394 11.0494 140.351 9.2645Z" fill="white"/>
<path d="M106.864 6.03469C105.285 7.01214 103.963 8.20207 102.982 9.47701C102.171 8.20207 101.958 5.94969 104.134 5.05724C104.475 4.92975 104.902 4.75975 105.499 4.58976C106.395 4.33478 106.437 4.29228 107.29 3.44232L110.405 0L110.575 0.127495L107.589 3.73981C107.376 4.03729 106.864 4.75976 106.864 6.03469Z" fill="white"/>
<path d="M115.097 28.8135C116.249 28.9835 117.443 29.111 118.68 29.1535C117.742 34.1257 112.537 32.4683 111.812 31.9583V31.7883C112.452 31.7883 112.537 31.7883 113.092 31.3634C113.561 30.9384 114.329 29.4934 115.097 28.8135Z" fill="white"/>
<path d="M106.309 29.791V29.5785C106.736 29.876 107.632 30.046 108.144 29.4085C108.698 28.7285 109.594 27.9636 110.362 27.4961C111.514 27.9211 112.708 28.3036 113.988 28.5585C113.433 30.046 110.831 33.2758 106.309 29.791Z" fill="white"/>
<path d="M103.664 26.8586C104.347 26.4336 105.499 25.7112 106.352 25.4137C107.29 26.0512 108.314 26.6036 109.381 27.1136C108.911 27.8361 107.376 29.0685 105.755 29.0685C103.835 29.0685 102.385 27.7086 101.787 26.9011L101.873 26.7311C102.214 27.0711 102.982 27.2836 103.664 26.8586Z" fill="white"/>
<path d="M98.4173 22.0139C98.6732 22.5663 99.6117 23.1613 100.465 22.9063C101.446 22.5663 102.171 22.4813 102.982 22.3538C103.664 23.2463 104.518 24.0537 105.456 24.8187C104.901 25.2862 104.006 25.7537 103.024 25.8811C100.124 26.2211 98.5026 22.8638 98.2893 22.1838L98.4173 22.0139Z" fill="white"/>
<path d="M96.8816 16.7866C96.8816 17.1691 97.2655 18.0616 98.2467 18.1041C99.0145 18.1466 100.252 18.3165 101.062 18.699C101.361 19.719 101.873 20.6964 102.47 21.6314C101.958 21.7589 101.446 21.9714 100.294 21.8439C97.2655 21.5464 96.7536 17.8066 96.7109 16.8291L96.8816 16.7866Z" fill="white"/>
<path d="M97.1376 11.0919L97.3082 11.0494C97.2229 11.8144 97.2656 12.4519 97.9908 12.7494C98.716 13.0468 99.9531 13.6418 100.764 14.3218C100.678 14.8317 100.636 15.3842 100.636 15.8942C100.636 16.4892 100.678 17.0416 100.806 17.5941C99.3559 17.5516 96.967 16.3617 96.8817 14.1093C96.7963 12.1119 97.0096 11.5169 97.1376 11.0919Z" fill="white"/>
<path d="M98.4601 9.2645C98.5455 6.67214 101.66 3.27232 103.622 1.52991L103.75 1.6999C102.513 2.67734 100.337 5.4822 100.039 6.16216C99.7399 6.84212 99.6546 7.56459 100.252 8.03207C100.636 8.32955 102.001 9.307 102.513 10.157C101.83 11.1344 101.318 12.1968 101.02 13.3018C99.356 12.5368 98.4175 11.0494 98.4601 9.2645Z" fill="white"/>
<path d="M119.747 24.4362L127.852 17.5091H127.383L119.96 22.9913L119.576 9.56198L119.32 9.47699L118.894 22.9913L111.428 17.5516H111.044L119.107 24.3937C117.145 26.0936 112.793 25.7536 111.684 24.6912C114.414 22.9488 112.964 22.0138 111.812 21.4614L107.674 19.6765C109.85 18.784 109.039 17.5941 108.655 16.7016C108.655 16.7016 108.314 15.9367 108.016 15.2992C108.016 15.2992 109.21 15.4692 110.191 15.5117C111.386 15.5542 111.684 15.0017 111.556 13.2168L115.012 16.7016C116.078 17.7216 117.059 17.2116 116.718 15.4692L115.097 8.45704C116.377 9.2645 117.571 9.05201 118.083 7.98957L119.448 5.4397L120.813 7.98957C121.325 9.05201 122.52 9.2645 123.799 8.45704L122.178 15.4692C121.837 17.2116 122.818 17.7216 123.885 16.7016L127.34 13.2168C127.212 15.0017 127.511 15.5542 128.705 15.5117C129.686 15.4692 130.924 15.2992 130.924 15.2992C130.625 15.8942 130.284 16.7016 130.284 16.7016C129.9 17.5516 129.089 18.7415 131.265 19.6765L127.127 21.4614C125.975 22.0563 124.525 22.9913 127.255 24.6912C126.018 25.7961 121.666 26.1361 119.747 24.4362Z" fill="#6063E1"/>
<path d="M143.295 11.3894C143.508 12.5368 143.679 13.9393 143.636 15.5542H197.173V11.3894H143.295Z" fill="white"/>
<path d="M143.465 17.3816C143.295 18.7415 142.953 20.144 142.399 21.5464H197.173V17.3816H143.465Z" fill="white"/>
<path d="M141.546 23.3738C140.863 24.6062 139.967 25.7962 138.858 26.9011C138.645 27.1136 138.431 27.3261 138.176 27.5386H197.173V23.3738H141.546Z" fill="white"/>
<path d="M95.5591 11.3894C95.3458 12.5368 95.1751 13.9393 95.2178 15.5542H82.2068V11.3894H95.5591Z" fill="white"/>
<path d="M95.346 17.3816C95.5166 18.7415 95.8579 20.144 96.4124 21.5464H82.1643V17.3816H95.346Z" fill="white"/>
<path d="M97.2656 23.3738C97.9481 24.6062 98.8439 25.7962 99.9531 26.9011C100.166 27.1136 100.38 27.3261 100.636 27.5386H82.1216V23.3738H97.2656Z" fill="white"/>
</svg>
