<svg width="24" height="24" viewBox="0 0 24 24" fill="none" xmlns="http://www.w3.org/2000/svg">
<path fill-rule="evenodd" clip-rule="evenodd" d="M22.6667 12C22.6667 6.10613 17.8939 1.33333 12 1.33333C6.10613 1.33333 1.33334 6.10613 1.33334 12C1.33334 17.8939 6.10613 22.6667 12 22.6667C17.8939 22.6667 22.6667 17.8939 22.6667 12ZM0 12C0 5.36053 5.36053 0 12 0C18.6395 0 24 5.36053 24 12C24 18.6395 18.6395 24 12 24C5.36053 24 0 18.6395 0 12ZM11.9728 13.28L7.70614 17.5728L6.5603 16.3999L10.827 12.1332L6.5603 7.86656L7.70614 6.71968L11.9728 10.9863L16.2395 6.71968L17.4134 7.86656L13.1196 12.1332L17.4134 16.3999L16.2395 17.5728L11.9728 13.28Z" fill="#6063E1"/>
</svg>
