<svg width="256" height="157" viewBox="0 0 256 157" fill="none" xmlns="http://www.w3.org/2000/svg">
<path d="M162.362 34.3787C162.362 33.728 162.344 33.0818 162.307 32.4401L153.817 40.9297C152.79 39.9579 151.709 39.0447 150.58 38.1944L161.603 27.1722C161.328 25.8806 160.979 24.606 160.557 23.3549L147.69 36.2198C146.439 35.4474 145.143 34.7491 143.81 34.1285L158.803 19.1355C158.274 18.0682 157.689 17.029 157.052 16.0223L140.349 32.7228C138.821 32.1893 137.261 31.7558 135.677 31.4249L154.547 12.5563C153.818 11.6665 153.045 10.8176 152.23 10.0095L131.445 30.7926C130.303 30.6883 129.148 30.6316 127.98 30.6316V30.6174H125.644L149.048 7.21487C148.128 6.49961 147.172 5.83148 146.185 5.21289L143.765 7.63197H106.374C105.069 8.68777 103.843 9.83703 102.704 11.0706H140.326L136.102 15.2933H99.3805C98.6401 16.3996 97.9647 17.5479 97.3576 18.7326H132.671L128.447 22.9545H95.5449C95.1478 24.0825 94.81 25.2306 94.533 26.3939H125.008L120.785 30.6166H93.8047C93.7263 31.3312 93.6708 32.0522 93.6379 32.7796V34.0559H112.305C109.814 35.2028 107.455 36.6188 105.271 38.2786H93.8214C93.9515 39.4337 94.1405 40.5813 94.3878 41.7171H101.335C99.4646 43.595 97.7966 45.664 96.3582 47.8902C96.8918 49.1378 97.499 50.3526 98.1767 51.5282C101.146 46.2331 105.473 41.8247 110.711 38.7565C115.949 35.6883 121.91 34.071 127.981 34.071C134.052 34.071 140.013 35.6883 145.252 38.7565C150.49 41.8247 154.816 46.2331 157.786 51.5282C158.464 50.3526 159.071 49.1377 159.605 47.8902C158.585 46.3127 157.449 44.8134 156.206 43.4047L162.231 37.3802C162.316 36.3908 162.362 35.3856 162.362 34.3787Z" fill="white"/>
<path d="M127.981 38.2928C122.293 38.2981 116.724 39.9199 111.923 42.9692C107.122 46.0186 103.287 50.3697 100.865 55.5155C101.646 56.5146 102.481 57.4701 103.367 58.3777C105.339 53.4626 108.737 49.2505 113.124 46.2837C117.511 43.317 122.686 41.7315 127.982 41.7315C133.278 41.7315 138.453 43.317 142.84 46.2837C147.227 49.2505 150.625 53.4626 152.597 58.3777C153.483 57.4703 154.319 56.5148 155.1 55.5155C152.677 50.3694 148.841 46.018 144.04 42.9686C139.238 39.9193 133.669 38.2976 127.981 38.2928Z" fill="white"/>
<path d="M127.981 45.9541C123.262 45.9601 118.666 47.4604 114.853 50.2397C111.039 53.0191 108.204 56.9346 106.753 61.425C107.706 62.1716 108.697 62.8677 109.723 63.5105C110.774 59.468 113.137 55.8887 116.441 53.3336C119.745 50.7786 123.804 49.3925 127.981 49.3925C132.157 49.3925 136.216 50.7786 139.52 53.3336C142.824 55.8887 145.187 59.468 146.238 63.5105C147.264 62.8681 148.255 62.1719 149.208 61.425C147.757 56.9347 144.922 53.0192 141.109 50.2398C137.295 47.4605 132.7 45.9602 127.981 45.9541Z" fill="white"/>
<path d="M127.981 53.6153C124.559 53.6198 121.247 54.8211 118.618 57.011C115.989 59.2009 114.209 62.2416 113.586 65.606C114.655 66.1 115.748 66.5382 116.863 66.919C117.189 64.1997 118.5 61.6941 120.549 59.8764C122.598 58.0587 125.242 57.0549 127.98 57.0549C130.719 57.0549 133.363 58.0587 135.412 59.8764C137.46 61.6941 138.772 64.1997 139.098 66.919C140.213 66.5382 141.306 66.1 142.376 65.606C141.752 62.2417 139.972 59.2013 137.343 57.0114C134.714 54.8216 131.402 53.6202 127.981 53.6153Z" fill="white"/>
<path d="M127.981 61.2765C126.166 61.2789 124.424 61.9872 123.123 63.2515C121.822 64.5157 121.063 66.2367 121.009 68.0501C122.149 68.285 123.301 68.4615 124.46 68.579C124.45 68.4714 124.443 68.3638 124.443 68.2537C124.443 67.3154 124.816 66.4156 125.479 65.7521C126.143 65.0887 127.042 64.7159 127.981 64.7159C128.919 64.7159 129.819 65.0887 130.482 65.7521C131.146 66.4156 131.519 67.3154 131.519 68.2537C131.519 68.3638 131.512 68.4714 131.502 68.579C132.66 68.4616 133.812 68.285 134.952 68.0501C134.898 66.2367 134.139 64.5158 132.838 63.2515C131.537 61.9872 129.795 61.2789 127.981 61.2765Z" fill="white"/>
<path d="M127.981 3.34848e-05C122.805 -0.00720352 117.695 1.15874 113.035 3.41023H142.926C138.266 1.15875 133.156 -0.00719324 127.981 3.34848e-05Z" fill="white"/>
<path d="M111.65 86.5406V106.397C111.688 107.339 111.523 108.278 111.165 109.151C110.808 110.023 110.267 110.809 109.579 111.454C108.891 112.098 108.072 112.588 107.179 112.888C106.285 113.189 105.337 113.293 104.399 113.195C99.8254 113.195 97.6133 109.479 97.6133 104.363V82.8128C95.0488 82.2598 93.1623 81.9116 90.5405 81.5224V103.632C90.5405 114.783 96.3638 120.579 104.346 120.579C112.328 120.579 118.723 115.899 118.723 106.944V88.4066C116.122 87.8126 111.65 86.5406 111.65 86.5406Z" fill="white"/>
<path d="M226.213 78.3986C217.867 73.4493 208.624 70.1999 199.016 68.8373V76.7046C202.44 77.15 205.823 77.8687 209.133 78.8534V119.647H216.193V81.344C219.633 82.7743 222.98 84.4196 226.213 86.2702V78.3986Z" fill="white"/>
<path d="M36.8369 109.26C42.9162 107.2 49.098 105.455 55.3574 104.033V97.2162C49.0958 98.5988 42.3734 100.708 36.8369 102.542V96.2536C43.1875 94.0368 49.6613 92.1904 56.2258 90.7233C56.2258 87.5894 56.2258 86.5446 56.2258 83.7958C47.2099 85.8234 38.3692 88.563 29.7866 91.989V119.641H36.8429L36.8369 109.26Z" fill="white"/>
<path d="M69.4191 112.834V81.2007C66.0722 81.7108 65.1668 81.9012 62.3586 82.4297V119.641H87.3744V112.828L69.4191 112.834Z" fill="white"/>
<path d="M154.89 112.861H133.284V107.386C140.291 107.429 147.286 106.812 154.177 105.543L154.148 98.771C147.32 100.426 140.311 101.211 133.286 101.108V95.7005C140.67 95.4532 147.97 94.0579 154.924 91.5649V84.4187C145.85 88.1843 136.019 89.767 126.222 89.0396V119.655H154.924L154.89 112.861Z" fill="white"/>
<path d="M186.804 69.2674V111.032L173.216 74.4148L162.321 80.7175V119.635H169.394V84.4042L182.487 119.649L193.877 119.586V68.5833C191.501 68.5444 189.129 68.7739 186.804 69.2674Z" fill="white"/>
</svg>
