<svg width="100" height="121" viewBox="0 0 100 121" fill="none" xmlns="http://www.w3.org/2000/svg">
<g clip-path="url(#clip0_1209_8)">
<path d="M41.6786 103.608V113.716C41.6786 115.753 40.316 117.177 37.9873 117.177C35.6585 117.177 34.5326 115.285 34.5326 112.68V101.71C33.2273 101.428 32.2665 101.25 30.9322 101.053V112.308C30.9322 117.985 33.8966 120.936 37.9599 120.936C42.0233 120.936 45.2791 118.553 45.2791 113.994V104.558C43.9549 104.255 41.6786 103.608 41.6786 103.608" fill="#26085E"/>
<path d="M100 99.4628C95.602 96.9649 91.2221 95.2765 86.1552 94.5952V98.6004C87.9941 98.8477 89.6133 99.1913 91.3049 99.6944V120.461H94.899V100.96C96.6233 101.67 98.3106 102.509 100 103.468V99.4628V99.4628Z" fill="#26085E"/>
<path d="M3.59278 115.173C7.35739 113.924 10.3067 113.118 13.0212 112.512V109.042C9.83348 109.746 6.41075 110.82 3.59278 111.757V108.555C6.62227 107.515 9.11283 106.744 13.4626 105.737C13.4615 104.141 13.4611 103.609 13.4602 102.21C8.89421 103.267 4.34356 104.614 7.62939e-06 106.383V120.461H3.59278V115.173V115.173Z" fill="#26085E"/>
<path d="M20.1791 116.993V100.889C18.475 101.148 18.0145 101.246 16.5848 101.518V120.461H29.3202V116.993H20.1791Z" fill="#26085E"/>
<path d="M63.6909 117.007H52.6933V114.219C55.599 114.241 60.255 113.944 63.3278 113.276L63.3131 109.83C60.1275 110.706 55.9132 111.044 52.6933 111.02V108.266C56.4221 108.174 60.2434 107.389 63.7089 106.161L63.7111 102.523C59.2504 104.282 53.9243 105.404 49.0992 104.875V120.461H63.7111L63.6909 117.007L63.6909 117.007Z" fill="#26085E"/>
<path d="M79.938 94.8141V116.079L73.0208 97.4372L67.4738 100.646V120.461H71.0742V102.518L77.7399 120.461L83.5385 120.429V94.4683C82.065 94.4746 81.3644 94.5385 79.938 94.8141" fill="#26085E"/>
<path d="M98.1789 119.183V119.466H97.7498V120.461H97.4668V119.466H97.0395V119.183H98.1789Z" fill="#26085E"/>
<path d="M100 120.461H99.717V119.492L99.3846 120.461H98.9956L98.6633 119.492V120.461H98.3804V119.183H98.8406L99.1893 120.182L99.5399 119.183H100V120.461Z" fill="#26085E"/>
<path d="M89.8688 43.1833C89.8688 42.3659 89.8439 41.5541 89.7993 40.7483L79.1343 51.4118C77.8456 50.1927 76.4884 49.0449 75.0691 47.9757L88.9153 34.1307C88.5664 32.4967 88.1281 30.8959 87.6006 29.3363L71.4392 45.4962C69.8723 44.5289 68.245 43.6513 66.5645 42.8685L85.3985 24.0364C84.7322 22.6915 83.9989 21.3861 83.2006 20.1253L62.2203 41.1036C60.3156 40.4388 58.3564 39.8912 56.3501 39.4723L80.0528 15.7718C79.1361 14.6572 78.1648 13.5898 77.1424 12.5731L51.0342 38.6791C49.6004 38.5474 48.1491 38.4764 46.6814 38.4764V38.4585H43.7524L73.1513 9.06223C71.9976 8.16601 70.7967 7.32783 69.5542 6.55029L66.5169 9.58716H19.5501C17.9091 10.9138 16.3674 12.3577 14.9377 13.9068H62.1969L56.8921 19.2108H10.7564C9.82971 20.597 8.97962 22.0382 8.21548 23.5308H52.5721L47.2677 28.8345H5.93866C5.44274 30.2426 5.01714 31.6838 4.66743 33.1545H42.9478L37.6434 38.4585H3.75225C3.65478 39.3562 3.58409 40.2617 3.54205 41.1751V42.7785H26.991C23.8448 44.2261 20.8838 46.0096 18.1542 48.0825H3.77233C3.93788 49.5461 4.17598 50.987 4.48365 52.4022H13.2107C10.8669 54.7556 8.76906 57.3539 6.95913 60.1549C7.6325 61.7282 8.39515 63.2543 9.24376 64.7249C16.6118 51.6484 30.631 42.7964 46.6814 42.7964C62.7319 42.7964 76.7507 51.6484 84.1191 64.7249C84.9673 63.2543 85.7304 61.7282 86.4037 60.1549C85.1206 58.1697 83.6917 56.2876 82.1343 54.5209L89.7033 46.953C89.8108 45.7105 89.8688 44.4537 89.8688 43.1833" fill="#26085E"/>
<path d="M46.6813 48.0996C31.6468 48.0996 18.6455 56.961 12.6205 69.7335C13.6012 70.9895 14.6511 72.1885 15.7619 73.328C20.6928 61.0845 32.6934 52.4192 46.6813 52.4192C60.6692 52.4192 72.6701 61.0845 77.6006 73.328C78.7119 72.1885 79.7614 70.9895 80.7421 69.7335C74.7174 56.961 61.7157 48.0996 46.6813 48.0996Z" fill="#26085E"/>
<path d="M46.6813 57.7236C34.2269 57.7236 23.6497 65.8953 20.0176 77.1562C21.2114 78.0945 22.4577 78.9684 23.7479 79.7787C26.3964 69.5892 35.6737 62.0433 46.6813 62.0433C57.6889 62.0433 66.9666 69.5892 69.6147 79.7787C70.9052 78.9684 72.1512 78.0945 73.345 77.1562C69.7133 65.8953 59.1357 57.7236 46.6813 57.7236Z" fill="#26085E"/>
<path d="M46.6813 67.3467C37.6778 67.3467 30.1703 73.8524 28.5999 82.4087C29.937 83.0255 31.3101 83.5776 32.7164 84.0579C33.5483 77.089 39.4914 71.6667 46.6813 71.6667C53.8711 71.6667 59.8146 77.089 60.6465 84.0579C62.0528 83.5776 63.4256 83.0255 64.7626 82.4087C63.1923 73.8524 55.6848 67.3467 46.6813 67.3467" fill="#26085E"/>
<path d="M46.6813 76.9702C41.9346 76.9702 38.0602 80.7638 37.9237 85.4778C39.3445 85.7702 40.7906 85.9938 42.2582 86.143C42.2459 86.0079 42.2378 85.8721 42.2378 85.7337C42.2378 83.2835 44.2311 81.2902 46.6813 81.2902C49.1315 81.2902 51.1255 83.2836 51.1255 85.7337C51.1255 85.8721 51.117 86.0079 51.1043 86.143C52.5724 85.9938 54.0184 85.7702 55.4392 85.4778C55.3027 80.7638 51.428 76.9702 46.6813 76.9702" fill="#26085E"/>
<path d="M46.6814 0C39.9533 0 33.5849 1.53872 27.9081 4.28318H65.4548C59.778 1.53873 53.4096 0 46.6814 0" fill="#26085E"/>
</g>
<defs>
<clipPath id="clip0_1209_8">
<rect width="100" height="120.936" fill="white"/>
</clipPath>
</defs>
</svg>
